<?xml version="1.0" encoding="UTF-8" standalone="no"?>
<svg
   xmlns:dc="http://purl.org/dc/elements/1.1/"
   xmlns:cc="http://creativecommons.org/ns#"
   xmlns:rdf="http://www.w3.org/1999/02/22-rdf-syntax-ns#"
   xmlns:svg="http://www.w3.org/2000/svg"
   xmlns="http://www.w3.org/2000/svg"
   xmlns:sodipodi="http://sodipodi.sourceforge.net/DTD/sodipodi-0.dtd"
   xmlns:inkscape="http://www.inkscape.org/namespaces/inkscape"
   version="1.0"
   width="1008.8212pt"
   height="364.62775pt"
   viewBox="0 0 1008.8212 364.62775"
   preserveAspectRatio="xMidYMid meet"
   id="svg102"
   sodipodi:docname="Tuổi_Trẻ_Logo.svg"
   inkscape:version="1.0.2 (e86c870879, 2021-01-15)"
   inkscape:export-filename="C:\Users\nguye\Desktop\Tuổi Trẻ Logo.png"
   inkscape:export-xdpi="96"
   inkscape:export-ydpi="96">
  <metadata
     id="metadata108">
    <rdf:RDF>
      <cc:Work
         rdf:about="">
        <dc:format>image/svg+xml</dc:format>
        <dc:type
           rdf:resource="http://purl.org/dc/dcmitype/StillImage" />
        <dc:title></dc:title>
      </cc:Work>
    </rdf:RDF>
  </metadata>
  <defs
     id="defs106">
    <rect
       x="26.458332"
       y="115.66071"
       width="84.129242"
       height="4.2500267"
       id="rect913" />
    <rect
       x="26.458332"
       y="115.66071"
       width="84.129242"
       height="4.2500267"
       id="rect926" />
  </defs>
  <sodipodi:namedview
     pagecolor="#ffffff"
     bordercolor="#666666"
     borderopacity="1"
     objecttolerance="10"
     gridtolerance="10"
     guidetolerance="10"
     inkscape:pageopacity="0"
     inkscape:pageshadow="2"
     inkscape:window-width="1366"
     inkscape:window-height="705"
     id="namedview104"
     showgrid="false"
     inkscape:zoom="0.39074999"
     inkscape:cx="1235.4736"
     inkscape:cy="531.09111"
     inkscape:window-x="-8"
     inkscape:window-y="-8"
     inkscape:window-maximized="1"
     inkscape:current-layer="svg102"
     inkscape:document-rotation="0"
     fit-margin-left="5"
     fit-margin-top="5"
     fit-margin-right="5"
     fit-margin-bottom="5" />
  <g
     transform="matrix(0.1,0,0,-0.1,3.8035813,360.1)"
     fill="#000000"
     stroke="none"
     id="g100"
     style="fill:#ff1010;fill-opacity:1">
    <path
       d="m 6490,2764 c -316,-433 -576,-791 -578,-796 -2,-4 82,-8 186,-8 h 191 l 3,-527 c 4,-501 5,-532 25,-604 24,-85 71,-185 112,-236 66,-84 201,-143 329,-143 161,0 272,50 392,177 l 80,84 v 311 c 0,300 -1,311 -18,295 -10,-9 -32,-20 -50,-23 -26,-5 -36,-1 -62,24 l -30,30 v 306 306 h 80 80 v 395 395 h -80 -80 l -2,400 -3,401 z"
       id="path4"
       style="fill:#ff1010;fill-opacity:1" />
    <path
       d="M 585,2758 C 271,2329 13,1974 12,1969 c -2,-5 80,-9 187,-9 h 191 v -492 c 1,-523 4,-576 50,-714 64,-192 219,-304 419,-304 160,0 271,50 391,177 l 80,84 v 311 c 0,300 -1,311 -18,295 -10,-9 -32,-20 -49,-23 -25,-5 -37,0 -64,24 l -34,30 v 304 303 l 83,3 82,3 v 394 394 l -82,3 -83,3 -5,392 -5,391 z"
       id="path6"
       style="fill:#ff1010;fill-opacity:1" />
    <path
       d="m 5404,3311 c -128,-78 -157,-337 -54,-479 36,-50 76,-72 131,-72 123,0 214,242 156,416 -44,131 -145,189 -233,135 z"
       id="path14"
       style="fill:#ff1010;fill-opacity:1" />
    <path
       d="m 4314,3230 c -31,-12 -72,-66 -80,-105 -8,-46 20,-103 68,-134 l 36,-23 -24,-64 c -22,-58 -22,-64 -6,-55 33,17 164,162 178,197 19,44 17,71 -5,121 -29,62 -101,90 -167,63 z"
       id="path16"
       style="fill:#ff1010;fill-opacity:1" />
    <path
       d="m 9146,3220 c -36,-23 -65,-74 -66,-115 0,-39 32,-92 70,-113 35,-20 36,-22 10,-96 l -19,-57 28,20 c 46,33 146,145 165,185 18,39 16,82 -6,132 -27,59 -125,82 -182,44 z"
       id="path18"
       style="fill:#ff1010;fill-opacity:1" />
    <path
       d="m 3911,3020 c -55,-89 -101,-162 -101,-163 0,-1 92,-2 204,-2 137,0 202,3 198,10 -21,35 -195,311 -197,313 -1,2 -48,-69 -104,-158 z"
       id="path20"
       style="fill:#ff1010;fill-opacity:1" />
    <path
       d="m 3930,2790 c -179,-24 -329,-106 -471,-258 -119,-128 -224,-319 -269,-487 -7,-27 -17,-54 -21,-60 -5,-5 -9,164 -9,378 v 387 h -385 -385 v -693 c 0,-762 3,-719 -61,-753 -39,-20 -82,-11 -109,23 -20,25 -20,39 -20,724 v 699 h -390 -391 l 4,-917 c 3,-911 3,-919 25,-1002 27,-102 81,-207 134,-262 23,-23 73,-57 116,-77 64,-31 89,-37 162,-40 161,-8 277,35 392,146 39,37 86,89 104,117 l 34,50 V 632 500 h 385 385 l 2,387 c 2,214 6,381 10,373 3,-8 18,-53 33,-100 107,-345 357,-611 645,-686 86,-23 244,-23 328,0 180,48 333,157 460,325 79,104 135,218 187,374 l 44,132 1,-402 V 500 h 385 385 v 1125 c 0,619 -2,1125 -4,1125 -2,0 -28,-11 -59,-25 -106,-46 -172,-59 -322,-59 -148,-1 -245,18 -335,64 -22,11 -42,20 -45,20 -3,0 -5,-183 -6,-407 v -408 l -25,83 c -111,377 -318,632 -594,733 -66,24 -218,52 -255,48 -5,-1 -35,-5 -65,-9 z m 124,-905 c 40,-43 60,-135 59,-275 0,-145 -20,-220 -66,-254 -26,-19 -30,-19 -54,-6 -58,33 -88,148 -80,305 6,120 30,197 69,231 37,30 43,30 72,-1 z"
       id="path22"
       style="fill:#ff1010;fill-opacity:1" />
    <path
       d="m 8376,2790 c -106,-27 -235,-132 -284,-231 l -22,-44 v 40 c 0,22 7,67 15,100 25,106 68,95 -375,95 H 7320 V 1625 500 h 390 390 v 714 c 0,508 3,717 11,722 6,3 34,-16 62,-44 29,-28 71,-62 95,-75 l 43,-24 3,-184 c 4,-188 19,-304 56,-439 104,-374 315,-612 621,-696 89,-25 327,-26 419,-1 271,72 485,303 565,612 17,64 33,255 21,255 -4,0 -30,-18 -59,-39 -107,-80 -204,-114 -352,-126 -145,-11 -259,28 -353,122 -57,57 -107,150 -118,221 l -7,42 h 438 438 l -6,148 c -16,392 -113,658 -317,863 -81,82 -109,103 -190,143 -226,112 -495,112 -686,0 l -43,-26 -34,26 c -89,68 -231,101 -331,76 z m 899,-613 c 36,-36 52,-80 62,-169 l 6,-58 h -128 -128 l 6,64 c 10,109 65,196 124,196 15,0 39,-14 58,-33 z"
       id="path24"
       style="fill:#ff1010;fill-opacity:1" />
  </g>
  <g
     aria-label="CƠ QUAN CỦA ĐOÀN TNCS HỒ CHÍ MINH TP.HCM"
     id="text57"
     style="font-size:37.3077px;line-height:1.25;font-family:Calibri;-inkscape-font-specification:'Calibri, Normal';stroke-width:0.932693"
     transform="translate(6.6675725,-39.301264)">
    <path
       d="m 80.875741,386.43238 5.228179,1.65772 q -1.202299,4.372 -4.007663,6.50334 -2.787148,2.11314 -7.086277,2.11314 -5.319262,0 -8.743993,-3.62512 -3.42473,-3.64333 -3.42473,-9.94629 0,-6.66729 3.442947,-10.34706 3.442947,-3.69798 9.053675,-3.69798 4.900279,0 7.960677,2.89645 1.821665,1.71237 2.732497,4.9185 l -5.337478,1.27516 q -0.473633,-2.0767 -1.985615,-3.279 -1.493766,-1.20229 -3.64333,-1.20229 -2.969315,0 -4.827413,2.13134 -1.839882,2.13135 -1.839882,6.90411 0,5.06423 1.821665,7.2138 1.821665,2.14956 4.73633,2.14956 2.149564,0 3.69798,-1.36625 1.548415,-1.36624 2.222431,-4.29913 z"
       style="font-style:normal;font-variant:normal;font-weight:bold;font-stretch:normal;font-family:Arial;-inkscape-font-specification:Arial;stroke-width:0.932693"
       id="path59" />
    <path
       d="m 95.194029,382.88014 q 0,4.40843 2.094915,6.88589 1.985615,2.33173 5.319266,2.33173 3.33364,0 5.30104,-2.33173 2.05848,-2.44103 2.05848,-6.95876 0,-4.48129 -2.00383,-6.84946 -1.93096,-2.25886 -5.35569,-2.25886 -3.424735,0 -5.373916,2.29529 -2.040265,2.38639 -2.040265,6.8859 z m 19.528251,-13.33459 h 5.11888 v 3.66155 q 0,2.25886 -0.40077,3.53403 -0.38255,1.27516 -1.4209,2.27708 -1.03835,0.9837 -2.60498,1.56663 0.12752,1.12943 0.12752,2.34995 0,6.41226 -3.4976,10.09202 -3.4976,3.67977 -9.41801,3.67977 -5.975059,0 -9.490873,-3.64333 -3.497597,-3.66155 -3.497597,-10.00095 0,-6.70372 3.716197,-10.511 3.351864,-3.46117 9.199413,-3.46117 5.90219,0 9.45444,3.66155 2.13135,2.22243 2.98753,5.48321 2.13135,-0.96548 2.20421,-3.57046 h -2.47746 z"
       style="font-style:normal;font-variant:normal;font-weight:bold;font-stretch:normal;font-family:Arial;-inkscape-font-specification:Arial;stroke-width:0.932693"
       id="path61" />
    <path
       d="m 154.41636,392.86286 q 1.98561,1.4209 4.31734,2.25887 l -1.98561,3.80728 q -1.22052,-0.36434 -2.38638,-1.00192 -0.25504,-0.12752 -3.58868,-2.36816 -2.6232,1.14765 -5.81111,1.14765 -6.15723,0 -9.65483,-3.62512 -3.47938,-3.62511 -3.47938,-10.18311 0,-6.53977 3.4976,-10.16489 3.49759,-3.64333 9.49087,-3.64333 5.93863,0 9.41801,3.64333 3.47938,3.62512 3.47938,10.16489 0,3.46117 -0.96548,6.08437 -0.72867,2.00383 -2.33173,3.88014 z m -4.33557,-3.04218 q 1.03835,-1.22051 1.54842,-2.9511 0.52828,-1.73058 0.52828,-3.97123 0,-4.62702 -2.04026,-6.90411 -2.04027,-2.29529 -5.33748,-2.29529 -3.29721,0 -5.3557,2.29529 -2.04026,2.2953 -2.04026,6.90411 0,4.68168 2.04026,7.01342 2.05849,2.31351 5.19175,2.31351 1.16587,0 2.20421,-0.38255 -1.63949,-1.07478 -3.33364,-1.67593 l 1.51198,-3.07862 q 2.65963,0.91084 5.08244,2.7325 z"
       style="font-style:normal;font-variant:normal;font-weight:bold;font-stretch:normal;font-family:Arial;-inkscape-font-specification:Arial;stroke-width:0.932693"
       id="path63" />
    <path
       d="m 161.9034,369.54555 h 5.39213 v 14.46402 q 0,3.44295 0.20038,4.46308 0.34612,1.6395 1.6395,2.64141 1.3116,0.9837 3.57047,0.9837 2.2953,0 3.46116,-0.92905 1.16587,-0.94726 1.40268,-2.31351 0.23682,-1.36625 0.23682,-4.53595 v -14.7737 h 5.39213 v 14.02682 q 0,4.8092 -0.4372,6.79481 -0.4372,1.98562 -1.62128,3.35187 -1.16587,1.36624 -3.13327,2.18599 -1.9674,0.80154 -5.13709,0.80154 -3.8255,0 -5.81111,-0.8744 -1.9674,-0.89262 -3.11505,-2.2953 -1.14765,-1.4209 -1.51198,-2.96932 -0.52829,-2.29529 -0.52829,-6.77659 z"
       style="font-style:normal;font-variant:normal;font-weight:bold;font-stretch:normal;font-family:Arial;-inkscape-font-specification:Arial;stroke-width:0.932693"
       id="path65" />
    <path
       d="m 212.96468,396.25116 h -5.86576 l -2.33174,-6.06615 h -10.67495 l -2.20422,6.06615 h -5.72003 l 10.40171,-26.70561 h 5.70181 z m -9.92808,-10.56566 -3.67976,-9.90986 -3.6069,9.90986 z"
       style="font-style:normal;font-variant:normal;font-weight:bold;font-stretch:normal;font-family:Arial;-inkscape-font-specification:Arial;stroke-width:0.932693"
       id="path67" />
    <path
       d="m 215.87934,396.25116 v -26.70561 h 5.24639 l 10.92999,17.8341 v -17.8341 h 5.00958 v 26.70561 h -5.41034 l -10.76605,-17.41512 v 17.41512 z"
       style="font-style:normal;font-variant:normal;font-weight:bold;font-stretch:normal;font-family:Arial;-inkscape-font-specification:Arial;stroke-width:0.932693"
       id="path69" />
    <path
       d="m 270.21961,386.43238 5.22818,1.65772 q -1.2023,4.372 -4.00766,6.50334 -2.78715,2.11314 -7.08628,2.11314 -5.31926,0 -8.74399,-3.62512 -3.42473,-3.64333 -3.42473,-9.94629 0,-6.66729 3.44295,-10.34706 3.44294,-3.69798 9.05367,-3.69798 4.90028,0 7.96068,2.89645 1.82166,1.71237 2.7325,4.9185 l -5.33748,1.27516 q -0.47364,-2.0767 -1.98562,-3.279 -1.49376,-1.20229 -3.64333,-1.20229 -2.96931,0 -4.82741,2.13134 -1.83988,2.13135 -1.83988,6.90411 0,5.06423 1.82166,7.2138 1.82167,2.14956 4.73633,2.14956 2.14957,0 3.69798,-1.36625 1.54842,-1.36624 2.22243,-4.29913 z"
       style="font-style:normal;font-variant:normal;font-weight:bold;font-stretch:normal;font-family:Arial;-inkscape-font-specification:Arial;stroke-width:0.932693"
       id="path71" />
    <path
       d="m 280.03839,369.54555 h 5.39213 v 14.46402 q 0,3.44295 0.20038,4.46308 0.34612,1.6395 1.6395,2.64141 1.3116,0.9837 3.57046,0.9837 2.2953,0 3.46117,-0.92905 1.16586,-0.94726 1.40268,-2.31351 0.23682,-1.36625 0.23682,-4.53595 v -14.7737 h 5.39212 v 14.02682 q 0,4.8092 -0.43719,6.79481 -0.4372,1.98562 -1.62129,3.35187 -1.16586,1.36624 -3.13326,2.18599 -1.9674,0.80154 -5.1371,0.80154 -3.82549,0 -5.81111,-0.8744 -1.9674,-0.89262 -3.11505,-2.2953 -1.14764,-1.4209 -1.51198,-2.96932 -0.52828,-2.29529 -0.52828,-6.77659 z m 9.61839,-2.98753 q 1.03835,-0.1093 1.32982,-0.20038 0.96548,-0.23682 0.9837,-0.83797 0.0182,-0.41898 -0.51007,-0.71045 -0.7651,-0.41898 -2.42281,-0.41898 -0.56472,0 -1.71237,0.0729 l -0.20038,-1.85809 q 0.71045,-0.14574 2.62319,-0.12752 2.24065,0.0182 3.66155,0.72866 1.56663,0.7651 1.60307,2.13135 0.0729,1.89453 -3.31543,2.31352 v 0.91083 h -2.04027 z"
       style="font-style:normal;font-variant:normal;font-weight:bold;font-stretch:normal;font-family:Arial;-inkscape-font-specification:Arial;stroke-width:0.932693"
       id="path73" />
    <path
       d="m 331.09966,396.25116 h -5.86576 l -2.33173,-6.06615 h -10.67496 l -2.20421,6.06615 h -5.72003 l 10.40171,-26.70561 h 5.70181 z m -9.92807,-10.56566 -3.67976,-9.90986 -3.6069,9.90986 z"
       style="font-style:normal;font-variant:normal;font-weight:bold;font-stretch:normal;font-family:Arial;-inkscape-font-specification:Arial;stroke-width:0.932693"
       id="path75" />
    <path
       d="m 342.94047,369.54555 h 9.83699 q 3.3883,0 5.1371,0.52828 2.36816,0.71045 4.04409,2.5139 1.67594,1.78523 2.5139,4.33556 0.85618,2.55033 0.85618,6.30296 0,3.29722 -0.94726,5.95685 -0.92905,2.64141 -2.75072,4.40843 -1.40268,1.32981 -3.77084,2.09491 -1.78524,0.56472 -4.79098,0.56472 H 342.94047 V 384.5925 h -2.76893 v -3.38829 h 2.76893 z m 5.37391,4.51773 v 7.14093 h 5.72003 v 3.38829 h -5.72003 v 7.15915 h 4.0441 q 2.67785,0 3.86193,-0.4372 1.56663,-0.5465 2.38638,-2.00383 1.14765,-2.05849 1.14765,-6.28475 0,-3.00575 -0.49185,-4.62703 -0.47363,-1.6395 -1.4209,-2.64141 -0.92905,-1.00192 -2.44103,-1.40268 -1.16587,-0.29147 -4.64525,-0.29147 z"
       style="font-style:normal;font-variant:normal;font-weight:bold;font-stretch:normal;font-family:Arial;-inkscape-font-specification:Arial;stroke-width:0.932693"
       id="path77" />
    <path
       d="m 368.78991,383.0623 q 0,-4.08053 1.22052,-6.84946 0.91083,-2.04026 2.47746,-3.66154 1.58485,-1.62129 3.46117,-2.4046 2.49568,-1.05657 5.75646,-1.05657 5.90219,0 9.43623,3.66155 3.55224,3.66155 3.55224,10.18311 0,6.46691 -3.51581,10.12846 -3.51582,3.64333 -9.39979,3.64333 -5.95685,0 -9.47266,-3.62512 -3.51582,-3.64333 -3.51582,-10.01916 z m 5.55608,-0.18216 q 0,4.53594 2.09492,6.88589 2.09491,2.33173 5.31926,2.33173 3.22435,0 5.28283,-2.31351 2.0767,-2.33173 2.0767,-6.97698 0,-4.59059 -2.02205,-6.84946 -2.00383,-2.25886 -5.33748,-2.25886 -3.33365,0 -5.37391,2.29529 -2.04027,2.27709 -2.04027,6.8859 z"
       style="font-style:normal;font-variant:normal;font-weight:bold;font-stretch:normal;font-family:Arial;-inkscape-font-specification:Arial;stroke-width:0.932693"
       id="path79" />
    <path
       d="m 422.98446,396.25116 h -5.86576 l -2.33173,-6.06615 h -10.67496 l -2.20421,6.06615 h -5.72003 l 10.4017,-26.70561 h 5.70182 z m -9.92807,-10.56566 -3.67977,-9.90986 -3.60689,9.90986 z m -0.63759,-17.67015 h -3.22434 l -5.0278,-5.44678 h 5.73825 z"
       style="font-style:normal;font-variant:normal;font-weight:bold;font-stretch:normal;font-family:Arial;-inkscape-font-specification:Arial;stroke-width:0.932693"
       id="path81" />
    <path
       d="m 425.89911,396.25116 v -26.70561 h 5.2464 l 10.92999,17.8341 v -17.8341 h 5.00958 v 26.70561 h -5.41035 l -10.76604,-17.41512 v 17.41512 z"
       style="font-style:normal;font-variant:normal;font-weight:bold;font-stretch:normal;font-family:Arial;-inkscape-font-specification:Arial;stroke-width:0.932693"
       id="path83" />
    <path
       d="m 469.16366,396.25116 v -22.18788 h -7.92424 v -4.51773 h 21.2224 v 4.51773 h -7.90603 v 22.18788 z"
       style="font-style:normal;font-variant:normal;font-weight:bold;font-stretch:normal;font-family:Arial;-inkscape-font-specification:Arial;stroke-width:0.932693"
       id="path85" />
    <path
       d="m 485.99585,396.25116 v -26.70561 h 5.2464 l 10.92999,17.8341 v -17.8341 h 5.00958 v 26.70561 h -5.41035 l -10.76604,-17.41512 v 17.41512 z"
       style="font-style:normal;font-variant:normal;font-weight:bold;font-stretch:normal;font-family:Arial;-inkscape-font-specification:Arial;stroke-width:0.932693"
       id="path87" />
    <path
       d="m 529.97083,386.43238 5.22818,1.65772 q -1.2023,4.372 -4.00766,6.50334 -2.78715,2.11314 -7.08628,2.11314 -5.31926,0 -8.74399,-3.62512 -3.42473,-3.64333 -3.42473,-9.94629 0,-6.66729 3.44295,-10.34706 3.44294,-3.69798 9.05367,-3.69798 4.90028,0 7.96068,2.89645 1.82166,1.71237 2.7325,4.9185 l -5.33748,1.27516 q -0.47364,-2.0767 -1.98562,-3.279 -1.49376,-1.20229 -3.64333,-1.20229 -2.96931,0 -4.82741,2.13134 -1.83988,2.13135 -1.83988,6.90411 0,5.06423 1.82166,7.2138 1.82167,2.14956 4.73633,2.14956 2.14957,0 3.69798,-1.36625 1.54842,-1.36624 2.22243,-4.29913 z"
       style="font-style:normal;font-variant:normal;font-weight:bold;font-stretch:normal;font-family:Arial;-inkscape-font-specification:Arial;stroke-width:0.932693"
       id="path89" />
    <path
       d="m 538.45981,387.56182 5.2464,-0.51007 q 0.47363,2.64142 1.91274,3.88015 1.45734,1.23873 3.91658,1.23873 2.60499,0 3.91658,-1.093 1.32982,-1.11121 1.32982,-2.58676 0,-0.94727 -0.56472,-1.60307 -0.5465,-0.67401 -1.93096,-1.16586 -0.94727,-0.3279 -4.31735,-1.16587 -4.33556,-1.07478 -6.08436,-2.64141 -2.45925,-2.20422 -2.45925,-5.37392 0,-2.04026 1.14765,-3.80728 1.16587,-1.78523 3.33365,-2.71428 2.186,-0.92905 5.26461,-0.92905 5.0278,0 7.55991,2.20422 2.55033,2.20421 2.67785,5.88398 l -5.39213,0.23681 q -0.34612,-2.05848 -1.49377,-2.95109 -1.12943,-0.91084 -3.40651,-0.91084 -2.34995,0 -3.67976,0.96549 -0.85618,0.61936 -0.85618,1.65771 0,0.94727 0.80153,1.62128 1.02013,0.85618 4.95493,1.78523 3.93479,0.92905 5.81111,1.93097 1.89453,0.9837 2.9511,2.71428 1.07478,1.71237 1.07478,4.24448 0,2.2953 -1.27517,4.29913 -1.27516,2.00383 -3.60689,2.98753 -2.33174,0.96548 -5.81112,0.96548 -5.06422,0 -7.77851,-2.33173 -2.71428,-2.34995 -3.24256,-6.83124 z"
       style="font-style:normal;font-variant:normal;font-weight:bold;font-stretch:normal;font-family:Arial;-inkscape-font-specification:Arial;stroke-width:0.932693"
       id="path91" />
    <path
       d="m 575.09348,396.25116 v -26.70561 h 5.39213 v 10.51101 h 10.56566 v -10.51101 h 5.39213 v 26.70561 h -5.39213 v -11.67687 h -10.56566 v 11.67687 z"
       style="font-style:normal;font-variant:normal;font-weight:bold;font-stretch:normal;font-family:Arial;-inkscape-font-specification:Arial;stroke-width:0.932693"
       id="path93" />
    <path
       d="m 600.92471,383.0623 q 0,-4.08053 1.22052,-6.84946 0.91083,-2.04026 2.47746,-3.66154 1.58485,-1.62129 3.46116,-2.4046 2.49569,-1.05657 5.75647,-1.05657 5.90219,0 9.43622,3.66155 3.55225,3.66155 3.55225,10.18311 0,6.46691 -3.51582,10.12846 -3.51581,3.64333 -9.39979,3.64333 -5.95684,0 -9.47266,-3.62512 -3.51581,-3.64333 -3.51581,-10.01916 z m 5.55608,-0.18216 q 0,4.53594 2.09491,6.88589 2.09492,2.33173 5.31927,2.33173 3.22434,0 5.28282,-2.31351 2.0767,-2.33173 2.0767,-6.97698 0,-4.59059 -2.02205,-6.84946 -2.00383,-2.25886 -5.33747,-2.25886 -3.33365,0 -5.37392,2.29529 -2.04026,2.27709 -2.04026,6.8859 z m 7.32309,-15.59346 -2.00383,1.34804 h -3.58868 l 3.97123,-2.36817 h 3.24256 l 3.97123,2.36817 h -3.58868 z m 2.14957,-1.63949 h -3.22435 l -4.66346,-2.96932 h 5.73824 z"
       style="font-style:normal;font-variant:normal;font-weight:bold;font-stretch:normal;font-family:Arial;-inkscape-font-specification:Arial;stroke-width:0.932693"
       id="path95" />
    <path
       d="m 658.48933,386.43238 5.22818,1.65772 q -1.2023,4.372 -4.00767,6.50334 -2.78714,2.11314 -7.08627,2.11314 -5.31927,0 -8.744,-3.62512 -3.42473,-3.64333 -3.42473,-9.94629 0,-6.66729 3.44295,-10.34706 3.44295,-3.69798 9.05368,-3.69798 4.90027,0 7.96067,2.89645 1.82167,1.71237 2.7325,4.9185 l -5.33748,1.27516 q -0.47363,-2.0767 -1.98561,-3.279 -1.49377,-1.20229 -3.64333,-1.20229 -2.96932,0 -4.82742,2.13134 -1.83988,2.13135 -1.83988,6.90411 0,5.06423 1.82167,7.2138 1.82166,2.14956 4.73633,2.14956 2.14956,0 3.69798,-1.36625 1.54841,-1.36624 2.22243,-4.29913 z"
       style="font-style:normal;font-variant:normal;font-weight:bold;font-stretch:normal;font-family:Arial;-inkscape-font-specification:Arial;stroke-width:0.932693"
       id="path97" />
    <path
       d="m 668.36271,396.25116 v -26.70561 h 5.39213 v 10.51101 h 10.56565 v -10.51101 h 5.39213 v 26.70561 h -5.39213 v -11.67687 h -10.56565 v 11.67687 z"
       style="font-style:normal;font-variant:normal;font-weight:bold;font-stretch:normal;font-family:Arial;-inkscape-font-specification:Arial;stroke-width:0.932693"
       id="path99" />
    <path
       d="m 695.12299,396.25116 v -26.70561 h 5.39212 v 26.70561 z m -0.61937,-28.23581 2.5139,-5.44678 h 5.73824 l -5.00958,5.44678 z"
       style="font-style:normal;font-variant:normal;font-weight:bold;font-stretch:normal;font-family:Arial;-inkscape-font-specification:Arial;stroke-width:0.932693"
       id="path101" />
    <path
       d="m 715.9446,396.25116 v -26.70561 h 8.06998 l 4.84562,18.21665 4.79098,-18.21665 h 8.0882 v 26.70561 h -5.00958 v -21.02202 l -5.30105,21.02202 h -5.19174 l -5.28283,-21.02202 v 21.02202 z"
       style="font-style:normal;font-variant:normal;font-weight:bold;font-stretch:normal;font-family:Arial;-inkscape-font-specification:Arial;stroke-width:0.932693"
       id="path103" />
    <path
       d="m 746.93115,396.25116 v -26.70561 h 5.39213 v 26.70561 z"
       style="font-style:normal;font-variant:normal;font-weight:bold;font-stretch:normal;font-family:Arial;-inkscape-font-specification:Arial;stroke-width:0.932693"
       id="path105" />
    <path
       d="m 757.51505,396.25116 v -26.70561 h 5.24639 l 10.92999,17.8341 v -17.8341 h 5.00958 v 26.70561 h -5.41034 l -10.76604,-17.41512 v 17.41512 z"
       style="font-style:normal;font-variant:normal;font-weight:bold;font-stretch:normal;font-family:Arial;-inkscape-font-specification:Arial;stroke-width:0.932693"
       id="path107" />
    <path
       d="m 784.421,396.25116 v -26.70561 h 5.39213 v 10.51101 h 10.56565 v -10.51101 h 5.39213 v 26.70561 h -5.39213 v -11.67687 h -10.56565 v 11.67687 z"
       style="font-style:normal;font-variant:normal;font-weight:bold;font-stretch:normal;font-family:Arial;-inkscape-font-specification:Arial;stroke-width:0.932693"
       id="path109" />
    <path
       d="m 827.72201,396.25116 v -22.18788 h -7.92424 v -4.51773 h 21.2224 v 4.51773 h -7.90603 v 22.18788 z"
       style="font-style:normal;font-variant:normal;font-weight:bold;font-stretch:normal;font-family:Arial;-inkscape-font-specification:Arial;stroke-width:0.932693"
       id="path111" />
    <path
       d="m 844.49952,396.25116 v -26.70561 h 8.65291 q 4.9185,0 6.41226,0.40077 2.2953,0.60115 3.84371,2.62319 1.54842,2.00384 1.54842,5.19175 0,2.45925 -0.89262,4.13518 -0.89261,1.67593 -2.27708,2.64141 -1.36625,0.94727 -2.78714,1.25695 -1.93097,0.38255 -5.59252,0.38255 h -3.51581 v 10.07381 z m 5.39213,-22.18788 v 7.57813 h 2.9511 q 3.18791,0 4.26269,-0.41899 1.07479,-0.41898 1.67594,-1.3116 0.61936,-0.89261 0.61936,-2.07669 0,-1.45734 -0.85618,-2.4046 -0.85618,-0.94727 -2.16778,-1.18408 -0.96548,-0.18217 -3.88015,-0.18217 z"
       style="font-style:normal;font-variant:normal;font-weight:bold;font-stretch:normal;font-family:Arial;-inkscape-font-specification:Arial;stroke-width:0.932693"
       id="path113" />
    <path
       d="m 864.53786,396.25116 v -5.11888 h 5.11887 v 5.11888 z"
       style="font-style:normal;font-variant:normal;font-weight:bold;font-stretch:normal;font-family:Arial;-inkscape-font-specification:Arial;stroke-width:0.932693"
       id="path115" />
    <path
       d="m 874.95774,396.25116 v -26.70561 h 5.39213 v 10.51101 h 10.56566 v -10.51101 h 5.39213 v 26.70561 h -5.39213 v -11.67687 h -10.56566 v 11.67687 z"
       style="font-style:normal;font-variant:normal;font-weight:bold;font-stretch:normal;font-family:Arial;-inkscape-font-specification:Arial;stroke-width:0.932693"
       id="path117" />
    <path
       d="m 918.96919,386.43238 5.22817,1.65772 q -1.20229,4.372 -4.00766,6.50334 -2.78715,2.11314 -7.08628,2.11314 -5.31926,0 -8.74399,-3.62512 -3.42473,-3.64333 -3.42473,-9.94629 0,-6.66729 3.44295,-10.34706 3.44295,-3.69798 9.05367,-3.69798 4.90028,0 7.96068,2.89645 1.82167,1.71237 2.7325,4.9185 l -5.33748,1.27516 q -0.47363,-2.0767 -1.98562,-3.279 -1.49376,-1.20229 -3.64333,-1.20229 -2.96931,0 -4.82741,2.13134 -1.83988,2.13135 -1.83988,6.90411 0,5.06423 1.82167,7.2138 1.82166,2.14956 4.73632,2.14956 2.14957,0 3.69798,-1.36625 1.54842,-1.36624 2.22244,-4.29913 z"
       style="font-style:normal;font-variant:normal;font-weight:bold;font-stretch:normal;font-family:Arial;-inkscape-font-specification:Arial;stroke-width:0.932693"
       id="path119" />
    <path
       d="m 928.75154,396.25116 v -26.70561 h 8.06998 l 4.84563,18.21665 4.79098,-18.21665 h 8.08819 v 26.70561 h -5.00958 v -21.02202 l -5.30104,21.02202 h -5.19175 l -5.28283,-21.02202 v 21.02202 z"
       style="font-style:normal;font-variant:normal;font-weight:bold;font-stretch:normal;font-family:Arial;-inkscape-font-specification:Arial;stroke-width:0.932693"
       id="path121" />
  </g>
</svg>
