<?xml version="1.0" encoding="UTF-8" standalone="no"?>
<!-- Created with Inkscape (http://www.inkscape.org/) -->

<svg
   xmlns:dc="http://purl.org/dc/elements/1.1/"
   xmlns:cc="http://creativecommons.org/ns#"
   xmlns:rdf="http://www.w3.org/1999/02/22-rdf-syntax-ns#"
   xmlns:svg="http://www.w3.org/2000/svg"
   xmlns="http://www.w3.org/2000/svg"
   xmlns:sodipodi="http://sodipodi.sourceforge.net/DTD/sodipodi-0.dtd"
   xmlns:inkscape="http://www.inkscape.org/namespaces/inkscape"
   width="615px"
   height="223px"
   viewBox="0 0 615 223"
   version="1.1"
   id="SVGRoot"
   inkscape:version="0.92.1 r15371"
   sodipodi:docname="Logo Đài Phát thanh &amp; Truyền hình An Giang - ATV.svg">
  <sodipodi:namedview
     id="base"
     pagecolor="#ffffff"
     bordercolor="#666666"
     borderopacity="1.0"
     inkscape:pageopacity="0.0"
     inkscape:pageshadow="2"
     inkscape:zoom="1.4142136"
     inkscape:cx="278.96633"
     inkscape:cy="157.30713"
     inkscape:document-units="px"
     inkscape:current-layer="layer1"
     showgrid="false"
     inkscape:window-width="1366"
     inkscape:window-height="705"
     inkscape:window-x="-8"
     inkscape:window-y="-8"
     inkscape:window-maximized="1"
     showguides="true"
     inkscape:guide-bbox="true" />
  <defs
     id="defs4485" />
  <metadata
     id="metadata4488">
    <rdf:RDF>
      <cc:Work
         rdf:about="">
        <dc:format>image/svg+xml</dc:format>
        <dc:type
           rdf:resource="http://purl.org/dc/dcmitype/StillImage" />
        <dc:title />
      </cc:Work>
    </rdf:RDF>
  </metadata>
  <g
     id="layer1"
     inkscape:groupmode="layer"
     inkscape:label="Layer 1">
    <path
       style="fill:#d51220;fill-opacity:1;stroke:none;stroke-width:0.8198638px;stroke-linecap:butt;stroke-linejoin:miter;stroke-opacity:1"
       d="M 294.51564,2.6936125 160.86568,221.56426 H 2.0928155 L 135.64453,2.6936125 Z"
       id="path5065"
       inkscape:connector-curvature="0"
       sodipodi:nodetypes="ccccc" />
    <path
       style="fill:#55ad3c;fill-opacity:1;stroke:none;stroke-width:0.8198638px;stroke-linecap:butt;stroke-linejoin:miter;stroke-opacity:1"
       d="M 160.86568,221.56426 294.51564,2.6936125 H 454.11001 L 320.64228,221.56426 Z"
       id="path5067"
       inkscape:connector-curvature="0" />
    <path
       style="fill:#0a3da8;fill-opacity:1;stroke:none;stroke-width:0.8198638px;stroke-linecap:butt;stroke-linejoin:miter;stroke-opacity:1"
       d="M 454.11001,2.6936125 320.64228,221.56426 H 479.21366 L 613.5182,2.6936125 Z"
       id="path5069"
       inkscape:connector-curvature="0" />
    <path
       style="fill:#fbfeff;fill-opacity:1;stroke:none;stroke-width:0.82818758;stroke-miterlimit:4;stroke-dasharray:none;stroke-opacity:1"
       d="M 163.52539 7.2675781 C 155.08893 7.2048581 146.28481 11.705206 137.92773 20.775391 C 134.89167 24.070499 128.38411 33.666563 120.89844 45.888672 C 86.25229 102.45659 44.256513 171.75288 43.091797 174.27734 C 38.377149 184.49613 37.886798 195.84555 41.832031 203.41211 C 45.819497 211.05966 53.431835 216.80174 61.869141 218.52539 C 71.442865 220.48119 83.502646 216.77685 90.283203 209.79688 C 93.105653 206.89144 98.151477 200.00633 114.35156 176.95508 C 128.88502 156.27528 130.31208 154.9113 139.36133 153.05469 C 141.80804 152.55271 151.77416 152.14453 161.59766 152.14453 C 178.98168 152.14453 179.44383 152.10163 181.16211 150.30078 C 183.79207 147.54455 185.12235 141.49199 183.89648 137.85352 C 183.35294 136.2403 182.18084 134.53772 181.29297 134.07227 C 180.24599 133.52361 170.63884 133.33455 153.95508 133.53125 C 127.45952 133.84363 125.15092 134.11125 120.23242 137.46094 C 119.05412 138.26339 108.69884 152.0988 97.220703 168.20508 C 84.244929 186.41286 75.4007 198.05803 73.839844 198.99414 C 72.420402 199.84546 69.74765 200.50228 67.689453 200.50391 C 64.63929 200.50691 63.572827 200.038 61.105469 197.62109 C 58.297897 194.87095 58.17618 194.51828 58.515625 190.03906 C 58.890788 185.08852 57.420311 187.68258 93.603516 128.16992 C 94.905469 126.02852 95.698465 124.27016 95.365234 124.26367 C 95.032002 124.25767 95.169927 123.9816 95.671875 123.65039 C 96.610708 123.03086 100.73899 116.36129 132.82617 63.621094 C 143.11166 46.71529 152.77061 31.718419 154.29102 30.294922 C 159.89259 25.050322 167.8156 26.18401 171.69531 32.785156 C 173.56043 35.958539 185.67027 61.904644 207.32422 109.11328 C 212.49385 120.38381 217.94134 132.18603 219.42969 135.3418 C 220.91804 138.49753 225.62282 148.64097 229.88281 157.88281 C 249.90199 201.31337 250.83607 202.96163 258.67578 208.63867 C 266.30053 214.16005 274.54663 216.16703 282.75391 214.49805 C 294.32953 212.14411 301.72116 204.96545 305.53711 192.36719 C 306.72799 188.43548 306.88477 180.27095 306.88477 122.52539 L 306.88477 57.138672 L 275.71484 56.896484 C 246.01896 56.665719 244.40664 56.572774 241.61914 54.96875 C 233.17502 50.109736 232.80355 40.415348 240.86133 35.191406 L 241.88867 34.525391 C 242.95758 33.899941 245.06396 32.901412 247.66211 32.873047 L 318.12109 32.644531 C 369.37898 32.479225 393.47489 32.685171 397.25781 33.318359 C 404.26671 34.491509 412.25448 38.243027 416.01172 42.126953 C 419.35959 45.587716 427.60824 58.206263 434.34961 70.177734 C 436.41508 73.845641 440.89377 81.215969 448.29297 93.128906 C 448.71297 93.805141 451.15253 97.89416 453.71289 102.2168 C 459.32389 111.68978 461.57052 113.94922 465.39062 113.94922 C 470.11831 113.94922 473.47097 110.45794 485.17383 93.349609 C 491.27041 84.437081 498.21352 74.379206 500.60352 70.998047 C 502.99351 67.616885 508.38151 59.855695 512.57812 53.751953 C 524.18931 36.864219 530.38186 31.598102 540.06836 30.369141 C 543.92906 29.879325 544.70163 30.055223 547.33594 32.023438 C 550.60146 34.463226 551.65891 37.396378 551.34375 43.128906 C 551.06117 48.268619 549.50614 52.344009 544.92773 59.929688 C 543.69931 61.964974 542.60409 63.906244 541.82227 65.386719 L 541.81836 65.386719 L 533.94922 78.050781 L 533.96484 78.091797 C 533.94854 78.119307 533.93222 78.142342 533.91602 78.169922 C 531.5954 82.114609 524.1318 94.563446 517.32812 105.83398 C 510.52443 117.10451 504.21178 127.61743 503.30273 129.19531 C 502.3937 130.7732 499.50802 135.5668 496.88867 139.84961 C 494.26931 144.13241 488.00752 154.58724 482.97461 163.08203 C 477.9417 171.57685 473.07281 179.77669 472.15234 181.30273 C 471.23188 182.8288 468.98146 185.92685 467.15234 188.1875 C 459.09803 198.14198 451.48128 196.61186 445.94336 183.92773 C 443.58035 178.51545 436.5768 160.24949 429.51562 141.08008 C 428.02107 137.02268 424.07473 126.50976 420.74609 117.71875 C 399.33747 61.178376 399.67933 61.89349 392.86914 59.017578 C 389.72652 57.690465 386.25197 57.481063 363.16016 57.226562 L 337.00977 56.941406 L 337.00977 133.03516 L 337.00977 209.12891 L 339.06641 211.30273 C 341.48848 213.86139 345.00209 214.78475 349.48438 214.04297 C 352.00254 213.62623 355.88582 211.38677 356.3125 210.10547 C 356.3442 210.01037 356.55123 180.23838 356.77148 143.94727 C 356.99174 107.65615 357.33154 77.502979 357.52539 76.939453 C 357.90475 75.836676 373.75552 75.451483 378.71875 76.423828 C 384.11283 77.480579 387.37847 82.260511 392.92578 97.226562 C 393.84482 99.706078 396.94136 108.00595 399.80859 115.66992 C 402.67581 123.33387 408.1479 137.98527 411.96875 148.22852 C 413.91697 153.45149 415.91468 158.56705 417.56641 162.61523 L 426.16406 186.24805 L 426.21289 186.17383 C 428.14553 191.24842 430.51455 196.74352 432.0293 199.27539 C 435.09202 204.39465 440.50306 209.51991 445.44531 211.98047 C 448.74675 213.62414 450.7984 214.02767 455.85156 214.0293 C 461.2524 214.0313 462.92234 213.65551 467.62305 211.38867 C 470.63575 209.93585 474.69795 207.17052 476.65234 205.24219 C 478.70676 203.21514 485.674 192.74712 493.16797 180.42578 C 508.13746 155.81347 506.00069 159.30613 513.74219 146.81836 C 517.09593 141.40851 520.21701 136.33759 520.67969 135.55078 C 521.14237 134.76399 525.28633 128.03593 529.88867 120.59961 C 534.491 113.16326 538.63353 106.42466 539.09375 105.625 C 539.55398 104.82536 540.77697 102.84348 541.8125 101.21875 C 541.9094 101.0668 541.99291 100.90415 542.08594 100.74805 L 542.10156 100.78906 L 556.67773 76.890625 C 556.74213 76.786112 556.80055 76.6847 556.86523 76.578125 L 557.5 75.541016 L 557.48047 75.527344 C 557.61917 75.287353 557.7611 75.059133 557.89648 74.816406 C 559.36539 72.182749 562.06906 67.75667 563.9043 64.980469 C 565.73955 62.204259 568.78734 56.879385 570.67773 53.148438 C 573.8349 46.917301 574.12077 45.817173 574.17188 39.625 C 574.21737 34.107221 573.88027 32.244953 572.31445 29.363281 C 568.4302 22.214869 565.15644 19.625697 553.16602 14.224609 C 552.67573 14.003745 552.04331 13.852664 551.41406 13.78125 C 542.65784 10.805677 534.72103 11.600113 528.17969 13.8125 C 527.71236 13.947635 527.15188 14.152211 526.51953 14.414062 C 518.82507 17.392775 513.33112 22.122214 511.02148 24.349609 C 510.8194 24.469622 510.39717 24.912969 509.88672 25.490234 C 509.87772 25.500304 509.77734 25.603516 509.77734 25.603516 L 509.78711 25.603516 C 507.04466 28.739053 500.81808 37.138106 496.60742 43.539062 C 495.4212 45.342351 489.13676 54.379256 482.64258 63.621094 C 476.14839 72.862931 470.05867 81.622719 469.10938 83.087891 C 468.16008 84.553061 467.12422 85.751953 466.80664 85.751953 C 466.2606 85.751953 462.07532 78.629818 443.44727 45.998047 C 433.25856 28.149907 431.55618 25.754409 426.03516 21.509766 C 420.73392 17.434105 413.63131 14.824394 404.78906 13.703125 C 396.00458 12.589217 251.48451 12.534645 244.4043 13.642578 C 229.85352 15.919535 219.77572 25.626677 217.22266 39.824219 C 214.8781 52.862275 222.10638 67.543205 233.57812 73.041016 C 239.26223 75.765115 245.27736 76.395564 267.69922 76.621094 C 277.94039 76.724106 286.48311 76.969569 286.68164 77.164062 C 286.88016 77.358507 287.18926 99.096165 287.36914 125.4707 C 287.77601 185.12241 287.31078 189.71444 280.54883 192.87305 C 277.1363 194.4671 274.49505 193.66102 270.17383 189.70508 C 264.98887 184.95841 261.44549 178.51717 247.70898 148.86719 C 244.26278 141.42864 240.3958 133.12876 239.11523 130.42383 C 237.83465 127.71891 235.08127 121.81877 232.99609 117.31055 C 228.34619 107.25707 209.56014 67.022899 198.2832 42.96875 C 193.69794 33.188208 188.58039 23.364842 186.91211 21.138672 C 180.03009 11.955201 171.96184 7.330295 163.52539 7.2675781 z "
       id="path5083" />
  </g>
</svg>
