<svg width="164" height="78" viewBox="0 0 164 78" fill="none" xmlns="http://www.w3.org/2000/svg">
<g clip-path="url(#clip0_5726_10732)">
<path d="M10.0235 19.4625V34.5169H2.49548V19.4625H0V13.1828H2.49548V6.77845H10.0235V13.1828H14.3074V19.4625H10.0235Z" fill="black"/>
<path d="M16.2412 -0.000106812H23.7692V15.8861C24.7952 14.6384 25.835 13.8068 26.8886 13.3909C27.9422 12.9473 29.1761 12.7255 30.5902 12.7255C33.2798 12.7255 35.3039 13.474 36.6625 14.9712C38.049 16.4406 38.7421 18.4368 38.7421 20.9597V34.517H31.2141V23.746C31.2141 22.6647 31.1309 21.7914 30.9646 21.126C30.7982 20.4607 30.5209 19.9478 30.1327 19.5873C29.4673 19.0051 28.6632 18.714 27.7204 18.714C26.445 18.714 25.4607 19.1021 24.7674 19.8784C24.102 20.627 23.7692 21.7082 23.7692 23.1222V34.517H16.2412V-0.000106812Z" fill="black"/>
<path d="M57.5853 20.7518C57.3357 19.6983 56.8228 18.8527 56.0464 18.215C55.2701 17.5774 54.3274 17.2585 53.2182 17.2585C52.0537 17.2585 51.097 17.5634 50.3484 18.1734C49.6275 18.7833 49.17 19.6428 48.9759 20.7518H57.5853ZM48.768 25.1185C48.768 28.3622 50.293 29.9841 53.343 29.9841C54.9789 29.9841 56.2128 29.3187 57.0446 27.988H64.3232C62.8536 32.8675 59.1797 35.3073 53.3014 35.3073C51.4992 35.3073 49.8493 35.0438 48.3521 34.5171C46.8547 33.9626 45.5654 33.1864 44.484 32.1883C43.4304 31.1901 42.6124 29.9979 42.0301 28.6117C41.4479 27.2255 41.1567 25.673 41.1567 23.954C41.1567 22.1796 41.4341 20.5855 41.9886 19.1716C42.5431 17.7299 43.3334 16.51 44.3593 15.5119C45.3852 14.5138 46.6191 13.7514 48.0609 13.2245C49.5304 12.6701 51.1803 12.3929 53.0103 12.3929C54.8126 12.3929 56.4346 12.6701 57.8765 13.2245C59.3183 13.7514 60.5383 14.5276 61.5365 15.5535C62.5347 16.5793 63.2972 17.8407 63.824 19.3379C64.3509 20.8072 64.6143 22.4707 64.6143 24.3283V25.1185H48.768Z" fill="black"/>
<path d="M153.579 72.1365C153.579 71.471 153.704 70.8472 153.953 70.265C154.203 69.655 154.549 69.1283 154.993 68.6847C155.437 68.2411 155.95 67.8946 156.532 67.6451C157.142 67.3955 157.78 67.2707 158.445 67.2707C159.11 67.2707 159.734 67.3955 160.317 67.6451C160.927 67.8946 161.453 68.2411 161.897 68.6847C162.341 69.1283 162.687 69.655 162.937 70.265C163.187 70.8472 163.311 71.471 163.311 72.1365C163.311 72.8018 163.187 73.4395 162.937 74.0494C162.687 74.6316 162.341 75.1445 161.897 75.5881C161.453 76.0317 160.927 76.3783 160.317 76.6278C159.734 76.8773 159.11 77.0021 158.445 77.0021C157.78 77.0021 157.142 76.8773 156.532 76.6278C155.95 76.3783 155.437 76.0317 154.993 75.5881C154.549 75.1445 154.203 74.6316 153.953 74.0494C153.704 73.4395 153.579 72.8018 153.579 72.1365Z" fill="#E15F3D"/>
<path d="M9.15011 41.6117V76.1289H1.62207V41.6117H9.15011Z" fill="black"/>
<path d="M28.0194 62.3634C27.7698 61.3099 27.2569 60.4643 26.4805 59.8266C25.7041 59.1889 24.7613 58.8701 23.6523 58.8701C22.4878 58.8701 21.5311 59.1751 20.7825 59.7851C20.0615 60.395 19.6041 61.2544 19.41 62.3634H28.0194ZM19.202 66.7301C19.202 69.9739 20.727 71.5957 23.7771 71.5957C25.413 71.5957 26.6469 70.9303 27.4787 69.5996H34.7571C33.2877 74.4791 29.6137 76.9189 23.7354 76.9189C21.9331 76.9189 20.2834 76.6555 18.786 76.1287C17.2888 75.5742 15.9995 74.7979 14.9181 73.7999C13.8644 72.8018 13.0465 71.6096 12.4642 70.2233C11.882 68.8371 11.5908 67.2846 11.5908 65.5656C11.5908 63.7912 11.868 62.1971 12.4226 60.7832C12.9772 59.3415 13.7674 58.1216 14.7933 57.1235C15.8192 56.1254 17.0532 55.363 18.4949 54.8362C19.9645 54.2817 21.6143 54.0045 23.4443 54.0045C25.2466 54.0045 26.8687 54.2817 28.3105 54.8362C29.7524 55.363 30.9724 56.1392 31.9706 57.1651C32.9688 58.1909 33.7312 59.4523 34.2581 60.9495C34.7849 62.4189 35.0483 64.0823 35.0483 65.9399V66.7301H19.202Z" fill="black"/>
<path d="M44.4676 65.3994C44.4676 66.0926 44.5924 66.7441 44.8419 67.354C45.0914 67.9362 45.4242 68.4491 45.8401 68.8928C46.2837 69.3364 46.7967 69.683 47.3789 69.9324C47.9889 70.1819 48.6406 70.3067 49.3337 70.3067C49.9992 70.3067 50.6231 70.1819 51.2054 69.9324C51.8153 69.683 52.3283 69.3364 52.7442 68.8928C53.1879 68.4491 53.5345 67.9362 53.7841 67.354C54.0613 66.7718 54.2 66.1481 54.2 65.4826C54.2 64.8172 54.0613 64.1935 53.7841 63.6113C53.5345 63.0013 53.1879 62.4745 52.7442 62.0309C52.3283 61.5874 51.8153 61.2408 51.2054 60.9912C50.6231 60.7417 49.9992 60.6169 49.3337 60.6169C48.6406 60.6169 47.9889 60.7417 47.3789 60.9912C46.7967 61.2408 46.2837 61.5874 45.8401 62.0309C45.4242 62.4745 45.0914 62.9874 44.8419 63.5696C44.5924 64.1242 44.4676 64.7341 44.4676 65.3994ZM53.9504 54.7948H61.52V76.1289H53.9504V73.7584C52.3422 75.7823 50.1656 76.7943 47.4206 76.7943C45.8678 76.7943 44.4398 76.517 43.1367 75.9625C41.8335 75.3803 40.6967 74.5763 39.7261 73.5505C38.7557 72.5247 37.9931 71.3186 37.4386 69.9324C36.9118 68.5462 36.6484 67.0352 36.6484 65.3994C36.6484 63.8746 36.9118 62.4329 37.4386 61.0744C37.9655 59.6882 38.7002 58.4822 39.643 57.4563C40.5857 56.4305 41.7087 55.6265 43.0119 55.0443C44.3151 54.4344 45.7569 54.1294 47.3374 54.1294C49.9992 54.1294 52.2036 55.0582 53.9504 56.9157V54.7948Z" fill="black"/>
<path d="M71.7581 65.3994C71.7581 66.0926 71.8829 66.7441 72.1325 67.354C72.3819 67.9362 72.7147 68.4491 73.1307 68.8928C73.5743 69.3364 74.0872 69.683 74.6696 69.9324C75.2796 70.1819 75.9311 70.3067 76.6243 70.3067C77.2898 70.3067 77.9137 70.1819 78.496 69.9324C79.106 69.683 79.6189 69.3364 80.0349 68.8928C80.4784 68.4491 80.825 67.9362 81.0746 67.354C81.3519 66.7718 81.4905 66.1481 81.4905 65.4826C81.4905 64.8172 81.3519 64.1935 81.0746 63.6113C80.825 63.0013 80.4784 62.4745 80.0349 62.0309C79.6189 61.5874 79.106 61.2408 78.496 60.9912C77.9137 60.7417 77.2898 60.6169 76.6243 60.6169C75.9589 60.6169 75.3211 60.7417 74.7111 60.9912C74.1289 61.2408 73.6159 61.5874 73.1722 62.0309C72.7563 62.4745 72.4097 62.9874 72.1325 63.5696C71.8829 64.1242 71.7581 64.7341 71.7581 65.3994ZM81.241 41.6117H88.8106V76.1289H81.241V73.7584C79.6328 75.7823 77.4561 76.7943 74.7111 76.7943C73.1584 76.7943 71.7304 76.5032 70.4272 75.921C69.124 75.3388 67.9872 74.5348 67.0168 73.509C66.0462 72.4831 65.2838 71.2771 64.7291 69.8908C64.2024 68.5046 63.939 67.0075 63.939 65.3994C63.939 63.8746 64.1885 62.4329 64.6876 61.0745C65.2144 59.6882 65.9492 58.4822 66.892 57.4563C67.8347 56.4305 68.9576 55.6265 70.2608 55.0443C71.5918 54.4344 73.0474 54.1294 74.6279 54.1294C77.2898 54.1294 79.4942 55.0582 81.241 56.9157V41.6117Z" fill="black"/>
<path d="M107.658 62.3634C107.409 61.3099 106.896 60.4643 106.12 59.8266C105.344 59.1889 104.401 58.8701 103.291 58.8701C102.127 58.8701 101.17 59.1751 100.422 59.7851C99.7007 60.395 99.2432 61.2544 99.0491 62.3634H107.658ZM98.8412 66.7301C98.8412 69.9739 100.366 71.5957 103.416 71.5957C105.052 71.5957 106.286 70.9303 107.118 69.5996H114.396C112.926 74.4791 109.253 76.9189 103.375 76.9189C101.572 76.9189 99.9225 76.6555 98.4253 76.1287C96.928 75.5742 95.6386 74.7979 94.5572 73.7999C93.5037 72.8018 92.6856 71.6096 92.1034 70.2233C91.5211 68.8371 91.23 67.2846 91.23 65.5656C91.23 63.7912 91.5073 62.1971 92.0618 60.7832C92.6163 59.3415 93.4066 58.1216 94.4326 57.1235C95.4584 56.1254 96.6923 55.363 98.1342 54.8362C99.6036 54.2817 101.254 54.0045 103.084 54.0045C104.885 54.0045 106.508 54.2817 107.949 54.8362C109.391 55.363 110.612 56.1392 111.609 57.1651C112.608 58.1909 113.37 59.4523 113.898 60.9495C114.424 62.4189 114.687 64.0823 114.687 65.9399V66.7301H98.8412Z" fill="black"/>
<path d="M117.119 54.7947H124.647V58.288C125.451 57.0126 126.435 56.0423 127.6 55.3769C128.764 54.6838 130.123 54.3372 131.676 54.3372C131.871 54.3372 132.078 54.3372 132.3 54.3372C132.55 54.3372 132.826 54.365 133.132 54.4204V61.615C132.133 61.1159 131.052 60.8664 129.888 60.8664C128.141 60.8664 126.824 61.3932 125.937 62.4466C125.077 63.4725 124.647 64.9834 124.647 66.9796V76.1288H117.119V54.7947Z" fill="black"/>
<path d="M148.641 60.2841C147.254 59.5633 145.895 59.2028 144.565 59.2028C143.872 59.2028 143.303 59.3415 142.859 59.6186C142.444 59.8959 142.235 60.2702 142.235 60.7415C142.235 60.991 142.264 61.199 142.319 61.3654C142.402 61.504 142.555 61.6425 142.777 61.7812C143.026 61.9198 143.372 62.0446 143.816 62.1555C144.287 62.2664 144.898 62.405 145.646 62.5713C147.725 62.9872 149.279 63.7357 150.305 64.817C151.331 65.8706 151.844 67.2291 151.844 68.8926C151.844 70.1402 151.593 71.2631 151.095 72.2611C150.596 73.2592 149.903 74.1048 149.015 74.7979C148.128 75.4633 147.06 75.9762 145.813 76.3367C144.565 76.7248 143.192 76.9189 141.695 76.9189C138.811 76.9189 135.969 76.1009 133.168 74.4652L135.913 69.1421C138.021 70.5838 140.017 71.3046 141.902 71.3046C142.597 71.3046 143.164 71.1521 143.608 70.8472C144.052 70.5422 144.274 70.154 144.274 69.6828C144.274 69.4055 144.232 69.1837 144.149 69.0173C144.094 68.8233 143.954 68.657 143.732 68.5183C143.512 68.3519 143.179 68.2133 142.735 68.1024C142.319 67.9638 141.764 67.8252 141.071 67.6865C138.742 67.2153 137.106 66.5221 136.164 65.6072C135.249 64.6645 134.791 63.3753 134.791 61.7396C134.791 60.5474 135.013 59.4801 135.456 58.5375C135.9 57.5671 136.537 56.7492 137.37 56.0838C138.201 55.4184 139.199 54.9055 140.364 54.5451C141.556 54.1846 142.873 54.0045 144.315 54.0045C146.672 54.0045 148.959 54.4619 151.178 55.3768L148.641 60.2841Z" fill="black"/>
<path d="M66.7944 13.1828H74.3225V15.886C75.3484 14.6383 76.3881 13.8067 77.4418 13.3908C78.4955 12.9472 79.7293 12.7254 81.1434 12.7254C82.6407 12.7254 83.9163 12.9749 84.9698 13.4739C86.0512 13.9453 86.9663 14.6245 87.7149 15.5117C88.3249 16.2325 88.7408 17.0366 88.9627 17.9238C89.1845 18.8109 89.2954 19.8229 89.2954 20.9596V34.5169H81.7673V23.7459C81.7673 22.6924 81.6841 21.8468 81.5178 21.2091C81.3792 20.5437 81.1158 20.017 80.7275 19.6288C80.3948 19.2961 80.0204 19.0605 79.6046 18.9219C79.1887 18.7832 78.745 18.7139 78.2736 18.7139C76.9981 18.7139 76.0139 19.102 75.3206 19.8783C74.6552 20.6269 74.3225 21.7081 74.3225 23.1221V34.5169H66.7944V13.1828Z" fill="#E15F3D"/>
<path d="M108.139 20.7518C107.889 19.6983 107.376 18.8527 106.6 18.215C105.823 17.5774 104.881 17.2585 103.771 17.2585C102.607 17.2585 101.65 17.5634 100.902 18.1734C100.181 18.7833 99.7232 19.6428 99.5291 20.7518H108.139ZM99.3212 25.1184C99.3212 28.3622 100.846 29.9841 103.896 29.9841C105.532 29.9841 106.766 29.3187 107.598 27.988H114.876C113.407 32.8675 109.733 35.3072 103.855 35.3072C102.052 35.3072 100.403 35.0438 98.9053 34.5171C97.4079 33.9626 96.1186 33.1863 95.0372 32.1882C93.9836 31.1901 93.1656 29.9979 92.5834 28.6117C92.0011 27.2255 91.71 25.673 91.71 23.954C91.71 22.1796 91.9873 20.5854 92.5418 19.1715C93.0963 17.7299 93.8866 16.51 94.9125 15.5119C95.9384 14.5138 97.1723 13.7514 98.6142 13.2245C100.084 12.6701 101.733 12.3929 103.564 12.3929C105.366 12.3929 106.988 12.6701 108.43 13.2245C109.871 13.7514 111.091 14.5276 112.09 15.5535C113.087 16.5793 113.851 17.8407 114.377 19.3379C114.904 20.8072 115.168 22.4707 115.168 24.3283V25.1184H99.3212Z" fill="#E15F3D"/>
<path d="M122.407 13.1828L127.522 24.4113L132.846 13.1828H137.588L142.911 24.744L148.276 13.1828H156.636L145.49 34.517H140.457L135.134 22.831L130.06 34.517H124.944L114.005 13.1828H122.407Z" fill="#E15F3D"/>
</g>
<defs>
<clipPath id="clip0_5726_10732">
<rect width="163.311" height="77.4598" fill="white"/>
</clipPath>
</defs>
</svg>
